<svg xmlns="http://www.w3.org/2000/svg" viewBox="0 0 250.01 124"><defs><style>.cls-1{fill:#f7931a;}.cls-1,.cls-3{stroke:#000;stroke-miterlimit:10;stroke-width:2px;}.cls-2{fill:#fff;}.cls-3{fill:#f7f7f7;}.cls-4{font-size:21px;fill:#828282;font-family:Montserrat-Bold, Montserrat;font-weight:700;}</style></defs><title>btc</title><g id="Layer_2" data-name="Layer 2"><g id="Layer_1-2" data-name="Layer 1"><path class="cls-1" d="M50.25,104.05a25,25,0,1,1-18.2-30.3,25,25,0,0,1,18.2,30.3Z"/><path class="cls-2" d="M37,94.44c.49-3.33-2-5.12-5.5-6.31l1.12-4.51-2.74-.68-1.1,4.39-2.2-.52,1.1-4.42L25,81.71l-1.12,4.51-5.53-1.37-.73,2.93s2,.46,2,.49a1.47,1.47,0,0,1,1.28,1.6l-3.08,12.34a1,1,0,0,1-1.26.65s-2-.5-2-.5l-1.36,3.15,5.52,1.39-1.13,4.56,2.74.68,1.12-4.51c.75.21,1.48.39,2.19.57l-1.12,4.49,2.74.68,1.14-4.55c4.67.89,8.19.53,9.67-3.7,1.19-3.4-.06-5.37-2.52-6.65a4.37,4.37,0,0,0,3.5-4m-6.26,8.79c-.85,3.41-6.59,1.56-8.45,1.1l1.51-6c1.86.47,7.82,1.39,6.94,4.94m.85-8.84c-.78,3.1-5.55,1.53-7.1,1.14l1.36-5.48c1.55.39,6.54,1.11,5.73,4.34"/><path class="cls-3" d="M241,1H45c-4.42,0-8,4.34-8,9.69V47c0,5.35,3.58,9.69,8,9.69H56.66c17.46,0-13.58,39.32,3.88,28.35s27.8-28.35,27.8-28.35H241c4.42,0,8-4.34,8-9.69V10.69C249,5.34,245.43,1,241,1Z"/><text class="cls-4" transform="translate(76.73 20.63)">We need to <tspan x="-8.96" y="25.2">stop the FUD!</tspan></text></g></g></svg>