<svg xmlns="http://www.w3.org/2000/svg" viewBox="0 0 1885 918"><defs><style>.cls-1{fill:#d8d8d8;}</style></defs><title>candlebg</title><g id="Layer_2" data-name="Layer 2"><g id="Layer_1-2" data-name="Layer 1"><g id="candlebg"><rect class="cls-1" y="751" width="25" height="74"/><rect class="cls-1" x="11.5" y="818" width="2" height="100"/><rect class="cls-1" x="60" y="733.18" width="25" height="36.06"/><rect class="cls-1" x="71.5" y="769.24" width="2" height="148.76"/><rect class="cls-1" x="120" y="708.71" width="25" height="48.3"/><rect class="cls-1" x="131.5" y="757.01" width="2" height="160.99"/><rect class="cls-1" x="180" y="757.01" width="25" height="52.81"/><rect class="cls-1" x="191.5" y="809.81" width="2" height="108.19"/><rect class="cls-1" x="240" y="665.56" width="25" height="66.97"/><rect class="cls-1" x="251.5" y="732.53" width="2" height="185.47"/><rect class="cls-1" x="300" y="715.1" width="25" height="39.27"/><rect class="cls-1" x="310.99" y="754.37" width="2" height="163.63" transform="translate(623.99 1672.37) rotate(180)"/><rect class="cls-1" x="360" y="746.89" width="25" height="54.23"/><rect class="cls-1" x="370.99" y="801.12" width="2" height="116.88" transform="translate(743.99 1719.12) rotate(180)"/><rect class="cls-1" x="420" y="700.58" width="25" height="100.54"/><rect class="cls-1" x="431.5" y="762.32" width="2" height="155.68"/><rect class="cls-1" x="480" y="683.82" width="29" height="72.39"/><rect class="cls-1" x="491.5" y="729.18" width="2" height="188.82"/><rect class="cls-1" x="540" y="669.75" width="25" height="50.27"/><rect class="cls-1" x="551.5" y="707.63" width="2" height="210.37"/><rect class="cls-1" x="600" y="606.74" width="25" height="100.54"/><rect class="cls-1" x="611.5" y="696.85" width="2" height="221.15"/><rect class="cls-1" x="660" y="584.62" width="25" height="89.82"/><rect class="cls-1" x="671.5" y="667.37" width="2" height="250.63"/><rect class="cls-1" x="721" y="584.62" width="29" height="79.09"/><rect class="cls-1" x="731.5" y="660" width="2" height="258"/><rect class="cls-1" x="778.75" y="544" width="25" height="102.44"/><rect class="cls-1" x="790.25" y="642" width="2" height="276" transform="translate(1582.49 1560) rotate(180)"/><rect class="cls-1" x="840" y="706.45" width="25" height="53.6"/><rect class="cls-1" x="851.5" y="760.05" width="2" height="157.95"/><rect class="cls-1" x="899" y="635.95" width="25" height="46.76"/><rect class="cls-1" x="911.5" y="678.77" width="2" height="239.23"/><rect class="cls-1" x="960" y="604.94" width="25" height="73.84"/><rect class="cls-1" x="971.5" y="678.77" width="2" height="239.23"/><rect class="cls-1" x="1020" y="622.17" width="25" height="54.15"/><rect class="cls-1" x="1031" y="676.31" width="2" height="241.69" transform="translate(2063.99 1594.31) rotate(180)"/><rect class="cls-1" x="1080" y="689.11" width="25" height="64.98"/><rect class="cls-1" x="1091.5" y="754.09" width="2" height="163.91"/><rect class="cls-1" x="1141" y="723.85" width="25" height="58.7"/><rect class="cls-1" x="1151.5" y="752.45" width="2" height="165.55"/><rect class="cls-1" x="1201" y="734.7" width="25" height="52.29"/><rect class="cls-1" x="1211.5" y="752.45" width="2" height="165.55"/><rect class="cls-1" x="1260" y="676" width="25" height="52.29"/><rect class="cls-1" x="1271.5" y="715.91" width="2" height="202.09"/><rect class="cls-1" x="1320" y="658.11" width="25" height="61.53"/><rect class="cls-1" x="1331.5" y="710.34" width="2" height="207.66"/><rect class="cls-1" x="1381" y="663.55" width="25" height="51.19"/><rect class="cls-1" x="1391.5" y="693.5" width="2" height="224.5"/><rect class="cls-1" x="1440" y="458.03" width="25" height="81.45"/><rect class="cls-1" x="1451.5" y="538.9" width="2" height="379.1"/><rect class="cls-1" x="1500" y="434.14" width="25" height="93.55"/><rect class="cls-1" x="1511.5" y="524.95" width="2" height="393.05"/><rect class="cls-1" x="1560" y="394.59" width="25" height="126.18"/><rect class="cls-1" x="1571.5" y="520.65" width="2" height="397.35"/><rect class="cls-1" x="1620" y="384.74" width="25" height="25.26"/><rect class="cls-1" x="1680" y="289" width="25" height="89"/><rect class="cls-1" x="1691.25" y="378" width="2" height="540"/><rect class="cls-1" x="1631.25" y="410" width="2" height="508"/><rect class="cls-1" x="1740" y="229.29" width="25" height="90.34"/><rect class="cls-1" x="1751.5" y="319.63" width="2" height="598.37"/><rect class="cls-1" x="1800" y="142.27" width="25" height="87.02"/><rect class="cls-1" x="1811.5" y="229.29" width="2" height="688.71"/><rect class="cls-1" x="1871.13" y="163" width="2" height="755" transform="translate(3744.25 1081) rotate(180)"/><rect class="cls-1" x="1860" width="25" height="163"/></g></g></g></svg>