<svg xmlns="http://www.w3.org/2000/svg" viewBox="0 0 258 114"><defs><style>.cls-1{fill:#2573c2;}.cls-1,.cls-3{stroke:#000;stroke-miterlimit:10;stroke-width:2px;}.cls-2{fill:#fff;}.cls-3{fill:#f7f7f7;}.cls-4{font-size:21px;fill:#828282;font-family:Montserrat-Bold, Montserrat;font-weight:700;}</style></defs><title>dash</title><g id="Layer_2" data-name="Layer 2"><g id="Layer_1-2" data-name="Layer 1"><circle class="cls-1" cx="26" cy="88" r="25"/><path class="cls-2" d="M42.31,81.42a3.58,3.58,0,0,0-.47-1.59,2.29,2.29,0,0,0-1.22-1.09,3.62,3.62,0,0,0-1.71-.37H16.72l-1.59,4.76H35.24l-3.18,9.74H12l-1.59,4.77H32.66a6.14,6.14,0,0,0,2-.38,12.74,12.74,0,0,0,2-1.21,10,10,0,0,0,1.59-1.59,11.59,11.59,0,0,0,1-1.84l2.94-9.26a3.49,3.49,0,0,0,.25-1.94h0Z"/><path class="cls-2" d="M23.06,85.79H11.23l-1.6,4.4h12Z"/><path class="cls-3" d="M249,1H53a8,8,0,0,0-8,8V39a8,8,0,0,0,8,8H64.65c17.46,0-13.57,32.46,3.88,23.4A87.16,87.16,0,0,0,96.33,47H249a8,8,0,0,0,8-8V9A8,8,0,0,0,249,1Z"/><text class="cls-4" transform="translate(78.93 29.63)">It’s mooning!</text></g></g></svg>