<svg xmlns="http://www.w3.org/2000/svg" viewBox="0 0 245 116"><defs><style>.cls-1{fill:#9e7ae2;}.cls-1,.cls-8{stroke:#000;stroke-miterlimit:10;stroke-width:2px;}.cls-2{fill:#a5a5a5;}.cls-3{fill:#c6c6c6;}.cls-4,.cls-9{fill:#828282;}.cls-5{fill:#a8a8a8;}.cls-6{fill:#757475;}.cls-7{fill:#939393;}.cls-8{fill:#f7f7f7;}.cls-9{font-size:21px;font-family:Montserrat-Bold, Montserrat;font-weight:700;}</style></defs><title>eth</title><g id="Layer_2" data-name="Layer 2"><g id="Layer_1-2" data-name="Layer 1"><circle class="cls-1" cx="26" cy="90" r="25"/><path class="cls-2" d="M26,71.55l-.25.84v24.4L26,97l11.32-6.7Z"/><path class="cls-3" d="M26,71.55,14.67,90.34,26,97Z"/><path class="cls-4" d="M26,99.18l-.14.17V108l.14.41,11.33-16Z"/><path class="cls-5" d="M26,108.45V99.18L14.67,92.49Z"/><path class="cls-6" d="M26,97l11.32-6.7L26,85.19V97"/><path class="cls-7" d="M14.67,90.34,26,97V85.19"/><path class="cls-8" d="M236,1H40a8,8,0,0,0-8,8V39a8,8,0,0,0,8,8H51.65c17.46,0-13.57,32.46,3.88,23.4A87.16,87.16,0,0,0,83.33,47H236a8,8,0,0,0,8-8V9A8,8,0,0,0,236,1Z"/><text class="cls-9" transform="translate(65.37 29.63)">Should I sell?</text></g></g></svg>