<svg xmlns="http://www.w3.org/2000/svg" viewBox="0 0 176.8 46.1"><defs><style>.cls-1{fill:#3dd8ba;}</style></defs><title>logo</title><g id="Layer_2" data-name="Layer 2"><g id="Layer_1-2" data-name="Layer 1"><g id="logo"><path class="cls-1" d="M156.72,8.75h13.36L176.8.25H162.41L154.8,9.38A7,7,0,0,1,156.72,8.75Z"/><path class="cls-1" d="M155.46.25H105.88L97.16,0l-24,28.51L55.51,7.36h-.07a14,14,0,0,0-5.3-4.8C47.62,1.24,23.92.64,20.5.64c-3.49.15-7.72.8-10.56,2.6A20.35,20.35,0,0,0,2.65,11.4,25.65,25.65,0,0,0,0,23.2,25.65,25.65,0,0,0,2.65,35a20.49,20.49,0,0,0,7.29,8.16A18.93,18.93,0,0,0,20.3,46.1a19.14,19.14,0,0,0,8.84-2,17.47,17.47,0,0,0,4.7-3.5l-4.4-7.47a11.17,11.17,0,0,1-14.87,2.47,12.11,12.11,0,0,1-4.26-5A16.93,16.93,0,0,1,8.79,23.2a16.93,16.93,0,0,1,1.52-7.34,12.05,12.05,0,0,1,4.26-5,16.89,16.89,0,0,1,3.27-1.61l2.74-.15c2.68,0,24.88.68,26.28,2A7.73,7.73,0,0,1,49,16.93a7.73,7.73,0,0,1-2.09,5.79c-1.4,1.38-3.44,2.06-6.13,2.06h-4l4.9,8.31,7.45,12.55h9.6L50.06,31.16a13.82,13.82,0,0,0,5.88-5.57,14.85,14.85,0,0,0,1.2-2.76L67.68,35.05l-9,10.7L70,45.59l31-36.87c3.31.18,8,.69,9.09,1.74a7.73,7.73,0,0,1,2.09,5.83,7.62,7.62,0,0,1-2.09,5.76q-2.1,2-6.13,2H96.88l-7.43,8.55,15.06-.05a19.07,19.07,0,0,0,8.91-2A13.64,13.64,0,0,0,119.24,25a17.68,17.68,0,0,0,2.05-8.66,18.28,18.28,0,0,0-1.48-7.54h9V45.31l8.94-9.89V8.75h10Z"/><path class="cls-1" d="M167.1,21.57a52.81,52.81,0,0,0-6.89-2.41,26.72,26.72,0,0,1-6-2.18,3.62,3.62,0,0,1-2-3.38,4.89,4.89,0,0,1,.18-1.35l-7.05,8.44c.1.17.21.34.32.5a11.45,11.45,0,0,0,4.6,3.85,52.81,52.81,0,0,0,6.89,2.41,44.73,44.73,0,0,1,4.34,1.39,7.56,7.56,0,0,1,2.63,1.67,3.61,3.61,0,0,1,1,2.63,4.09,4.09,0,0,1-1.73,3.44q-1.74,1.31-5.37,1.3a17.73,17.73,0,0,1-6.51-1.27,19.26,19.26,0,0,1-3.37-1.68l-5.1,5.92,0,.13a18.59,18.59,0,0,0,6.54,3.69A25.4,25.4,0,0,0,158,46.1a18.27,18.27,0,0,0,8.57-1.84,12.39,12.39,0,0,0,5.28-5,13.81,13.81,0,0,0,1.76-6.92,11.55,11.55,0,0,0-1.91-7A11.62,11.62,0,0,0,167.1,21.57Z"/></g></g></g></svg>