<svg xmlns="http://www.w3.org/2000/svg" viewBox="0 0 638 393.25"><defs><style>.cls-1{fill:#fff;stroke:#000;stroke-miterlimit:10;stroke-width:3px;}.cls-2{fill:#303030;}.cls-3{opacity:0.2;}.cls-4{opacity:0.8;}.cls-5{opacity:0.1;}.cls-6{fill:#3dd8ba;}.cls-7{fill:#e25454;}</style></defs><title>Asset 10</title><g id="Layer_2" data-name="Layer 2"><g id="Layer_1-2" data-name="Layer 1"><rect class="cls-1" x="1.5" y="1.5" width="635" height="340" rx="5" ry="5"/><polygon class="cls-2" points="411.5 384.25 411.5 341.25 226.5 341.25 226.5 384.25 169 384.25 169 393.25 469 393.25 469 384.25 411.5 384.25"/><rect class="cls-3" x="71.89" y="23.5" width="193.5" height="12" rx="6" ry="6"/><rect class="cls-3" x="71.89" y="56.5" width="81.5" height="12" rx="6" ry="6"/><rect class="cls-3" x="71.89" y="89.5" width="156.5" height="12" rx="6" ry="6"/><rect class="cls-3" x="71.89" y="122.5" width="65.5" height="12" rx="6" ry="6"/><rect class="cls-3" x="293.64" y="297.38" width="25" height="20" rx="8" ry="8"/><rect class="cls-3" x="71.89" y="155.5" width="145.5" height="12" rx="6" ry="6"/><rect class="cls-3" x="71.89" y="188.5" width="148.5" height="12" rx="6" ry="6"/><rect class="cls-3" x="71.89" y="221.5" width="84.5" height="12" rx="6" ry="6"/><rect class="cls-3" x="71.89" y="254.5" width="172.5" height="12" rx="6" ry="6"/><rect class="cls-3" x="71.89" y="297.37" width="212.5" height="20" rx="8" ry="8"/><rect class="cls-4" x="22.39" y="16.5" width="30" height="310"/><rect class="cls-5" x="360.39" y="16.25" width="267" height="310.5"/><rect class="cls-6" x="370.39" y="156.75" width="11" height="29.51" rx="5" ry="5"/><rect class="cls-6" x="390.39" y="144.75" width="11" height="18.5" rx="5" ry="5"/><rect class="cls-6" x="410.39" y="136.75" width="11" height="18.5" rx="5" ry="5"/><rect class="cls-7" x="430.39" y="167.75" width="11" height="18.5" rx="5" ry="5"/><rect class="cls-6" x="450.39" y="148.75" width="11" height="23.5" rx="5" ry="5"/><rect class="cls-6" x="470.39" y="141.75" width="11" height="18.5" rx="5" ry="5"/><rect class="cls-6" x="490.39" y="138.75" width="11" height="21.5" rx="5" ry="5"/><rect class="cls-7" x="510.39" y="161.75" width="11" height="15.5" rx="5" ry="5"/><rect class="cls-6" x="530.39" y="124.75" width="11" height="36.5" rx="5" ry="5"/><rect class="cls-7" x="550.39" y="171.75" width="11" height="22.5" rx="5" ry="5"/><rect class="cls-6" x="570.39" y="133.75" width="11" height="22.5" rx="5" ry="5"/><rect class="cls-7" x="590.39" y="138.75" width="11" height="14.5" rx="5" ry="5"/><rect class="cls-6" x="610.39" y="108.75" width="11" height="29.51" rx="5" ry="5"/></g></g></svg>